<?xml version="1.0" standalone="no"?><!DOCTYPE svg PUBLIC "-//W3C//DTD SVG 1.1//EN" "http://www.w3.org/Graphics/SVG/1.1/DTD/svg11.dtd"><svg class="icon" width="24px" height="24px" viewBox="0 0 1024 1024" version="1.1" xmlns="http://www.w3.org/2000/svg"><path d="M298.666667 597.333333 213.333333 597.333333 213.333333 810.666667 426.666667 810.666667 426.666667 725.333333 298.666667 725.333333 298.666667 597.333333 298.666667 597.333333ZM213.333333 426.666667 298.666667 426.666667 298.666667 298.666667 426.666667 298.666667 426.666667 213.333333 213.333333 213.333333 213.333333 426.666667 213.333333 426.666667ZM725.333333 725.333333 597.333333 725.333333 597.333333 810.666667 810.666667 810.666667 810.666667 597.333333 725.333333 597.333333 725.333333 725.333333 725.333333 725.333333ZM597.333333 213.333333 597.333333 298.666667 725.333333 298.666667 725.333333 426.666667 810.666667 426.666667 810.666667 213.333333 597.333333 213.333333 597.333333 213.333333Z" fill="#ffffff" /></svg>